<?xml version="1.0" encoding="UTF-8" standalone="no"?>
<svg
   xmlns:dc="http://purl.org/dc/elements/1.1/"
   xmlns:cc="http://creativecommons.org/ns#"
   xmlns:rdf="http://www.w3.org/1999/02/22-rdf-syntax-ns#"
   xmlns:svg="http://www.w3.org/2000/svg"
   xmlns="http://www.w3.org/2000/svg"
   version="1.1"
   id="svg7160"
   viewBox="0 0 69 105.00085"
   height="29.633574mm"
   width="19.473333mm">
  <defs
     id="defs7162" />
  <metadata
     id="metadata7165">
    <rdf:RDF>
      <cc:Work
         rdf:about="">
        <dc:format>image/svg+xml</dc:format>
        <dc:type
           rdf:resource="http://purl.org/dc/dcmitype/StillImage" />
        <dc:title></dc:title>
      </cc:Work>
    </rdf:RDF>
  </metadata>
  <g
     transform="translate(-270.1175,-322.21009)"
     id="layer1">
    <g
       id="g4953"
       transform="translate(-1843.3825,13.348761)">
      <ellipse
         style="opacity:1;fill:#4d4d4d;fill-opacity:1;stroke:#000000;stroke-width:1;stroke-linecap:round;stroke-miterlimit:4;stroke-dasharray:none;stroke-dashoffset:0;stroke-opacity:1"
         id="ellipse4955"
         cx="2148"
         cy="385.36218"
         rx="34"
         ry="28" />
      <path
         transform="matrix(0.14936377,0,0,0.30246636,1832.3944,254.69346)"
         d="m 2113,520.80775 -97.3807,-168.6683 194.7614,-1e-5 z"
         id="path4957"
         style="opacity:1;fill:#ffe6d5;fill-opacity:1;stroke:#000000;stroke-width:4.70477486;stroke-linecap:round;stroke-miterlimit:4;stroke-dasharray:none;stroke-dashoffset:0;stroke-opacity:1" />
      <ellipse
         ry="28"
         rx="19"
         cy="345.36218"
         cx="2148"
         id="ellipse4959"
         style="opacity:1;fill:#ffccaa;fill-opacity:1;stroke:#000000;stroke-width:1;stroke-linecap:round;stroke-miterlimit:4;stroke-dasharray:none;stroke-dashoffset:0;stroke-opacity:1" />
      <path
         id="path4961"
         d="m 2148,309.36133 a 20,14.139535 0 0 0 -20,14.13954 20,14.139535 0 0 0 0.207,1.9157 32,8.9302326 0 0 0 -12.207,7.01453 32,8.9302326 0 0 0 32,8.93024 32,8.9302326 0 0 0 32,-8.93024 32,8.9302326 0 0 0 -12.209,-7.00436 20,14.139535 0 0 0 0.209,-1.92587 20,14.139535 0 0 0 -20,-14.13954 z"
         style="opacity:1;fill:#502d16;fill-opacity:1;stroke:#000000;stroke-width:1;stroke-linecap:round;stroke-miterlimit:4;stroke-dasharray:none;stroke-dashoffset:0;stroke-opacity:1" />
      <ellipse
         ry="1.8644902"
         rx="1.75"
         cy="379.18823"
         cx="2148"
         id="ellipse4963"
         style="opacity:1;fill:#4d4d4d;fill-opacity:1;stroke:#000000;stroke-width:1;stroke-linecap:round;stroke-miterlimit:4;stroke-dasharray:none;stroke-dashoffset:0;stroke-opacity:1" />
      <ellipse
         style="opacity:1;fill:#4d4d4d;fill-opacity:1;stroke:#000000;stroke-width:1;stroke-linecap:round;stroke-miterlimit:4;stroke-dasharray:none;stroke-dashoffset:0;stroke-opacity:1"
         id="ellipse4965"
         cx="2148"
         cy="389.18823"
         rx="1.75"
         ry="1.8644902" />
      <ellipse
         ry="1.8644902"
         rx="1.75"
         cy="399.18823"
         cx="2148"
         id="ellipse4967"
         style="opacity:1;fill:#4d4d4d;fill-opacity:1;stroke:#000000;stroke-width:1;stroke-linecap:round;stroke-miterlimit:4;stroke-dasharray:none;stroke-dashoffset:0;stroke-opacity:1" />
    </g>
  </g>
</svg>
